# xmcd
#
# Track frame offsets:
#	150
#	17341
#	33127
#	55058
#	70737
#	87272
#	101041
#	124153
#	143932
#	162277
#
# Disc length: 2700 seconds
#
# Revision: 1
# Processed by: cddbd v1.5.1PL0 Copyright (c) Steve Scherf et al.
# Submitted via: CDmax 1.8
#
DISCID=7a0a8a0a
DTITLE=Prinz Of Harp - Rising Up
DYEAR=1900
DGENRE=Blues
TTITLE0=From Now On
TTITLE1=Rising Up
TTITLE2=Tell Me Why
TTITLE3=Coming Gone
TTITLE4=Needle and Spoon
TTITLE5=Young Boy
TTITLE6=Hobo Song
TTITLE7=Day By Day
TTITLE8=The Dreams Begin
TTITLE9=Dilettant des Wunders
EXTD=Prinz Of Harap: Andreas Teuber\nGuests:\nManne Pokrandt\nMichael Linke\nW
EXTD=olfram Bodag\nHeiner Witte\nHaymo Doerk\nVincent Brisach\nGerti Moeller\n
EXTD=Micha Niedzwetzki\nChristoph Falkner\nUwe Fischer
EXTT0=
EXTT1=
EXTT2=
EXTT3=
EXTT4=
EXTT5=
EXTT6=
EXTT7=
EXTT8=
EXTT9=
PLAYORDER=
